<?xml version="1.0" encoding="utf-8"?>
<!-- Generator: Adobe Illustrator 18.1.1, SVG Export Plug-In . SVG Version: 6.00 Build 0)  -->
<!DOCTYPE svg PUBLIC "-//W3C//DTD SVG 1.1//EN" "http://www.w3.org/Graphics/SVG/1.1/DTD/svg11.dtd">
<svg version="1.1" id="Layer_1" xmlns="http://www.w3.org/2000/svg" xmlns:xlink="http://www.w3.org/1999/xlink" x="0px" y="0px"
	 viewBox="0 0 68.7 68.7" enable-background="new 0 0 68.7 68.7" xml:space="preserve">
<g>
	<g>
		<path fill="#4F260F" stroke="#4F260F" stroke-miterlimit="10" d="M45,32.2c0.3,1.3,0.5,2.6,0.5,4.1c0,0.2,0,0.3,0,0.5l1.6,0.6
			l1.3-1.1l1,1.2l-2,1.7l-2.1-0.9c-0.2,1.9-0.8,3.7-1.6,5.2l0.3-0.4l1.6,0.9l1.5-0.9l0.8,1.4l-2.2,1.4l-2.5-1.5
			c-1.9,3.1-4.9,5.1-8.2,5.1c-3.3,0-6.3-2-8.2-5l-2.4,1.5l-2.2-1.4l0.8-1.4l1.5,0.9l1.6-0.9l0.1,0.2c-0.7-1.5-1.2-3.1-1.5-4.9
			l-2,0.8l-2-1.7l1-1.2l1.3,1.1l1.5-0.6c0-0.2,0-0.3,0-0.5c0-1.4,0.2-2.8,0.5-4.1l-2.6-0.1l-1.1-2.4l1.4-0.7l0.8,1.6l1.8,0.1l0,0.5
			c1.1-3.3,3.2-5.9,5.8-7.3c0.1-1,0.9-1.8,1.9-1.8h4.4c1,0,1.9,0.9,1.9,1.9c0,0,0,0.1,0,0.1c2.5,1.4,4.5,4,5.5,7.2l0-0.7l1.8-0.1
			l0.8-1.6l1.4,0.7l-1.1,2.4L45,32.2z"/>
		<polygon fill="#4F260F" stroke="#4F260F" stroke-miterlimit="10" points="40.4,20.4 40.1,21 39.8,21.1 39.2,21.3 38.6,21.7 
			37.8,22.1 37.8,21.7 38.7,21 39.3,20.8 39.9,20.4 40.2,19.7 40.9,19.5 40.7,20.1 		"/>
		<polygon fill="#4F260F" stroke="#4F260F" stroke-miterlimit="10" points="31.4,21.3 30.7,21.1 30.4,21 30.2,20.4 29.8,20.1 
			29.7,19.5 30.3,19.7 30.6,20.4 31.2,20.8 31.8,21 32.7,21.7 32.7,22.1 31.9,21.7 		"/>
	</g>
</g>
</svg>
